<svg xmlns="http://www.w3.org/2000/svg" width="24" height="56" viewBox="0 0 24 56"><g transform="translate(659 -1702)"><g transform="translate(-659 1734)"><rect width="24" height="24" fill="none"/><path d="M11.01,3.05A9,9,0,1,0,20.95,13a1,1,0,0,0-1.54-.95,5.4,5.4,0,0,1-7.47-7.44A1,1,0,0,0,11.01,3.05Z" fill="#fff"/></g><g transform="translate(-659 1702)"><rect width="24" height="24" fill="none"/><path d="M12,9a3,3,0,1,1-3,3,3.009,3.009,0,0,1,3-3m0-2a5,5,0,1,0,5,5,5,5,0,0,0-5-5ZM2,13H4a1,1,0,0,0,0-2H2a1,1,0,0,0,0,2Zm18,0h2a1,1,0,0,0,0-2H20a1,1,0,0,0,0,2ZM11,2V4a1,1,0,0,0,2,0V2a1,1,0,0,0-2,0Zm0,18v2a1,1,0,0,0,2,0V20a1,1,0,0,0-2,0ZM5.99,4.58A1,1,0,0,0,4.58,5.99L5.64,7.05A1,1,0,0,0,7.05,5.64ZM18.36,16.95a1,1,0,0,0-1.41,1.41l1.06,1.06a1,1,0,0,0,1.41-1.41ZM19.42,5.99a1,1,0,0,0-1.41-1.41L16.95,5.64a1,1,0,0,0,1.41,1.41ZM7.05,18.36a1,1,0,0,0-1.41-1.41L4.58,18.01a1,1,0,0,0,1.41,1.41Z" fill="#fff"/></g></g></svg>